<svg xmlns="http://www.w3.org/2000/svg" version="1.1" xmlns:xlink="http://www.w3.org/1999/xlink"
     xmlns:svgjs="http://svgjs.dev/svgjs" width="16" height="16" viewBox="0 0 1000 600"><rect width="1000"
                                                                                                height="600" x="0" y="0" fill="#f4efea"/><g><rect width="333.3333333333333" height="333.3333333333333" rx="13.333333333333334" ry="13.333333333333334" y="219.3981343604053" fill="#7d141d" transform="matrix(0.6339516391065203,0,0,0.6339516391065204,0,55.25357836790809)" x="197.17591857910156"/><path d="M309.68127148110983 315.41422889918545L309.68127148110983 330.30687033457014L272.05051206859423 330.30687033457014L272.05051206859423 459.6058293401193L252.39552873243025 459.6058293401193L252.39552873243025 330.30687033457014L215.53555298015638 330.30687033457014L215.53555298015638 315.41422889918545L309.68127148110983 315.41422889918545ZM405.89158907199646 311.06480681639283L405.89158907199646 459.6058293401193L388.4663727529603 459.6058293401193L386.62199756595334 446.25475522521805Q380.7310081626773 461.0648126970055 355.7631231684186 461.0648126970055L355.7631231684186 461.0648126970055Q349.0738221170351 461.0648126970055 343.8159764346719 460.18391708530066Q338.5306027644429 459.30302147359583 334.70421245110003 457.1833664079311Q330.8778221377572 455.06371134226634 328.1800793269112 452.77888834940694Q325.45480852819935 450.52159334441336 323.665489316924 446.1996992494865Q321.8761701056485 441.9053331424255 320.85763455461483 438.3542227077404Q319.8390990035811 434.8306402609211 319.3711232098629 428.5267310396584Q318.8756194282789 422.2503498062615 318.7930354646816 417.54306388121387Q318.6829235132185 412.86330594403194 318.6829235132185 404.8251334872254L318.6829235132185 404.8251334872254Q318.6829235132185 396.9796569454793 318.9306754040105 391.2813634572637Q319.1784272948025 385.5830699690481 319.8941549793127 379.9673604444298Q320.6374106516886 374.35165091981156 321.82111412991696 370.5252606064687Q323.0323455960111 366.6988702931258 325.0694166980785 363.12023187057497Q327.10648780014594 359.5415934480241 329.9693985381866 357.36688240662784Q332.80478128836154 355.19217136523156 336.796339528899 353.48543611755343Q340.7603697815708 351.80622885774113 345.8805755246051 351.11802916109673Q351.00078126763935 350.4298294644523 357.4973864039625 350.4298294644523L357.4973864039625 350.4298294644523Q369.96756490715893 350.4298294644523 376.90461784933444 353.788243984077Q383.81414280364424 357.1191305158359 386.81469348101376 364.38651931240065L386.81469348101376 364.38651931240065L386.81469348101376 312.6063741368763L405.89158907199646 311.06480681639283ZM386.81469348101376 434.9407522123842L386.81469348101376 434.9407522123842L386.81469348101376 378.5083770875437Q386.81469348101376 370.08481280061625 381.5843757865164 366.94662218391784Q376.3815860798847 363.8084315672194 361.95692043821816 363.8084315672194L361.95692043821816 363.8084315672194Q350.72550138898157 363.8084315672194 345.3024877794238 365.43258285130014L345.3024877794238 365.43258285130014Q340.8429537451681 366.80898224458895 339.30138642468467 373.41569933237514Q337.7598191042012 380.0499444080271 337.7598191042012 391.2813634572637L337.7598191042012 391.2813634572637Q337.7598191042012 407.63298824953455 338.3379068493825 437.06040727804896L338.3379068493825 437.06040727804896Q338.8058826431007 443.4469004629089 343.51316856814833 445.62161150430524Q348.1929265053302 447.7963225457015 361.95692043821816 447.7963225457015L361.95692043821816 447.7963225457015Q375.50069046817987 447.7963225457015 380.8686481020062 445.0985797348555Q386.2366057358325 442.3733089361437 386.81469348101376 434.9407522123842ZM512.1496222338913 444.79577186833194L510.22266308328693 459.6058293401193L436.94315938459164 459.6058293401193L436.94315938459164 315.41422889918545L456.59814272075556 315.41422889918545L456.59814272075556 444.79577186833194L512.1496222338913 444.79577186833194Z " fill="#f4efea" transform="matrix(0.6339516391065203,0,0,0.6339516391065204,0,55.25357836790809)"/><path d="M708.8425903336868 314.0925828758807L708.8425903336868 329.12036065365845L670.8703681114646 329.12036065365845L670.8703681114646 459.5925828758806L651.0370347781312 459.5925828758806L651.0370347781312 329.12036065365845L613.8425903336868 329.12036065365845L613.8425903336868 314.0925828758807L708.8425903336868 314.0925828758807ZM763.1481458892424 447.5925828758806L763.1481458892424 447.5925828758806Q777.0092570003535 447.2870273203251 782.42592366702 445.5370273203251Q787.8425903336868 443.75924954254737 787.8425903336868 438.5925828758807L787.8425903336868 438.5925828758807Q788.92592366702 424.62036065365845 788.92592366702 406.2592495425473L788.92592366702 406.2592495425473Q788.92592366702 400.2036939869918 788.42592366702 388.925916209214Q787.9537014447978 377.6481384314362 787.9537014447978 372.20369398699177L787.9537014447978 372.20369398699177Q787.9537014447978 370.5370273203251 787.42592366702 369.175916209214Q786.8703681114646 367.78702732032514 785.6481458892424 366.87036065365845Q784.42592366702 365.95369398699177 783.2037014447978 365.2592495425473Q781.9814792225757 364.5648050981029 779.7870347781313 364.175916209214Q777.5925903336868 363.7870273203251 776.0925903336868 363.5092495425473Q774.5648125559089 363.20369398699177 771.7870347781313 363.12036065365845Q769.0092570003535 363.0092495425473 767.4814792225757 363.0092495425473Q765.9814792225757 363.0092495425473 763.0370347781313 363.0092495425473Q760.1203681114646 363.0092495425473 758.5925903336868 363.0092495425473Q757.0925903336868 363.0092495425473 754.3148125559089 363.12036065365845Q751.5370347781313 363.20369398699177 750.0092570003535 363.5092495425473Q748.5092570003535 363.7870273203251 746.2870347781313 364.175916209214Q744.0925903336868 364.5648050981029 742.8703681114646 365.2592495425473Q741.67592366702 365.95369398699177 740.4537014447978 366.87036065365845Q739.2314792225757 367.78702732032514 738.67592366702 369.175916209214Q738.1481458892424 370.5370273203251 738.1481458892424 372.20369398699177L738.1481458892424 372.20369398699177Q738.1481458892424 377.6481384314362 737.6481458892424 388.925916209214Q737.17592366702 400.2036939869918 737.17592366702 406.2592495425473L737.17592366702 406.2592495425473Q737.17592366702 424.62036065365845 738.2314792225757 438.5925828758807L738.2314792225757 438.5925828758807Q738.2314792225757 443.75924954254737 743.9537014447978 445.675916209214Q749.67592366702 447.5925828758806 763.1481458892424 447.5925828758806ZM762.9537014447978 461.0648050981029L762.9537014447978 461.0648050981029Q752.1203681114646 461.0648050981029 744.8981458892424 460.175916209214Q737.6481458892424 459.2870273203251 732.42592366702 456.3148050981029Q727.2037014447978 453.3425828758806 724.4814792225757 449.98147176476954Q721.7314792225757 446.5925828758806 720.17592366702 439.3425828758806Q718.6203681114646 432.0648050981029 718.2870347781313 424.925916209214Q717.92592366702 417.7870273203251 717.92592366702 405.0925828758806L717.92592366702 405.0925828758806Q717.92592366702 395.62036065365845 718.17592366702 389.2870273203251Q718.42592366702 382.925916209214 719.2870347781311 376.8425828758807Q720.17592366702 370.73147176476954 721.5092570003535 366.95369398699177Q722.8148125559089 363.20369398699177 725.3148125559089 359.8425828758807Q727.7870347781313 356.45369398699177 730.92592366702 354.70369398699177Q734.0370347781313 352.95369398699177 738.8703681114646 351.62036065365845Q743.7037014447978 350.31480509810285 749.42592366702 349.87036065365845Q755.1481458892424 349.425916209214 763.0370347781313 349.425916209214Q770.9537014447978 349.425916209214 776.67592366702 349.87036065365845Q782.3981458892424 350.31480509810285 787.2314792225757 351.62036065365845Q792.0648125559089 352.95369398699177 795.17592366702 354.70369398699177Q798.3148125559089 356.45369398699177 800.7870347781311 359.8425828758807Q803.2870347781313 363.20369398699177 804.5925903336868 366.95369398699177Q805.92592366702 370.73147176476954 806.7870347781311 376.8425828758807Q807.67592366702 382.925916209214 807.92592366702 389.2870273203251Q808.17592366702 395.62036065365845 808.17592366702 405.0925828758806L808.17592366702 405.0925828758806Q808.17592366702 417.7870273203251 807.8148125559089 424.925916209214Q807.4814792225757 432.0648050981029 805.92592366702 439.3425828758806Q804.3703681114646 446.5925828758806 801.5648125559089 450.00924954254737Q798.7870347781311 453.45369398699177 793.5648125559089 456.37036065365845Q788.3425903336868 459.2870273203251 781.1203681114646 460.175916209214Q773.8981458892424 461.0648050981029 762.9537014447978 461.0648050981029ZM944.5925903336868 374.0370273203251L944.5925903336868 374.0370273203251Q944.5925903336868 387.425916209214 944.4537014447978 396.0648050981029Q944.2870347781311 404.70369398699177 943.5092570003535 413.73147176476954Q942.7314792225757 422.7870273203251 941.8703681114646 428.0370273203251Q940.9814792225757 433.3148050981029 938.5925903336868 438.8425828758807Q936.2037014447978 444.37036065365845 933.8981458892424 447.0370273203251Q931.5925903336868 449.73147176476954 926.92592366702 452.5648050981029Q922.2314792225757 455.3981384314362 917.7314792225757 456.37036065365845Q913.2314792225757 457.3425828758806 905.5648125559089 458.3148050981029Q897.92592366702 459.2870273203251 890.5370347781313 459.45369398699177Q883.17592366702 459.5925828758806 871.8425903336868 459.5925828758806L871.8425903336868 459.5925828758806L836.4814792225757 459.5925828758806L836.4814792225757 314.0925828758807L886.8703681114646 314.0925828758807Q899.17592366702 314.0925828758807 907.67592366702 315.12036065365845Q916.17592366702 316.1481384314362 922.8703681114646 318.925916209214Q929.5648125559089 321.70369398699177 933.5648125559089 325.8981384314362Q937.5648125559089 330.0925828758807 940.1481458892424 337.0925828758807Q942.7314792225757 344.06480509810285 943.67592366702 352.7592495425473Q944.5925903336868 361.45369398699177 944.5925903336868 374.0370273203251ZM924.9537014447978 399.0370273203251L924.9537014447978 374.3425828758807Q924.9537014447978 365.3425828758807 924.92592366702 361.3981384314362Q924.8703681114646 357.45369398699177 924.2314792225757 351.48147176476954Q923.5925903336868 345.5370273203251 922.4814792225757 343.3425828758807Q921.3425903336868 341.1481384314362 918.8981458892424 337.70369398699177Q916.4537014447978 334.28702732032514 913.2037014447978 333.37036065365845Q909.92592366702 332.45369398699177 904.5925903336868 331.03702732032514Q899.2870347781313 329.62036065365845 892.7314792225757 329.37036065365845Q886.2037014447978 329.12036065365845 876.8148125559089 329.12036065365845L876.8148125559089 329.12036065365845L856.3148125559089 329.12036065365845L856.3148125559089 444.6481384314362L879.7592570003535 444.6481384314362Q888.1481458892424 444.6481384314362 892.8425903336868 444.50924954254737Q897.5092570003535 444.37036065365845 902.9814792225757 443.675916209214Q908.4537014447978 442.98147176476954 911.0370347781311 441.87036065365845Q913.6481458892424 440.73147176476954 916.67592366702 438.3425828758807Q919.67592366702 435.95369398699177 920.8703681114646 432.87036065365845Q922.0370347781313 429.8148050981029 923.2037014447978 424.7870273203251Q924.3703681114646 419.7592495425473 924.67592366702 413.7036939869918Q924.9537014447978 407.6481384314362 924.9537014447978 399.0370273203251L924.9537014447978 399.0370273203251ZM1014.8148125559089 447.5925828758806L1014.8148125559089 447.5925828758806Q1028.67592366702 447.2870273203251 1034.0925903336868 445.5370273203251Q1039.5092570003535 443.75924954254737 1039.5092570003535 438.5925828758807L1039.5092570003535 438.5925828758807Q1040.5925903336868 424.62036065365845 1040.5925903336868 406.2592495425473L1040.5925903336868 406.2592495425473Q1040.5925903336868 400.2036939869918 1040.0925903336868 388.925916209214Q1039.6203681114646 377.6481384314362 1039.6203681114646 372.20369398699177L1039.6203681114646 372.20369398699177Q1039.6203681114646 370.5370273203251 1039.064812555909 369.175916209214Q1038.5370347781313 367.78702732032514 1037.314812555909 366.87036065365845Q1036.0925903336868 365.95369398699177 1034.8703681114646 365.2592495425473Q1033.6481458892424 364.5648050981029 1031.4537014447978 364.175916209214Q1029.2592570003535 363.7870273203251 1027.7592570003535 363.5092495425473Q1026.2314792225757 363.20369398699177 1023.4537014447978 363.12036065365845Q1020.67592366702 363.0092495425473 1019.1481458892424 363.0092495425473Q1017.6481458892424 363.0092495425473 1014.7037014447978 363.0092495425473Q1011.7870347781313 363.0092495425473 1010.2592570003535 363.0092495425473Q1008.7592570003535 363.0092495425473 1005.9814792225757 363.12036065365845Q1003.17592366702 363.20369398699177 1001.67592366702 363.5092495425473Q1000.1481458892424 363.7870273203251 997.9537014447978 364.175916209214Q995.7592570003535 364.5648050981029 994.5370347781311 365.2592495425473Q993.3148125559089 365.95369398699177 992.0925903336868 366.87036065365845Q990.8703681114646 367.78702732032514 990.3425903336868 369.175916209214Q989.8148125559089 370.5370273203251 989.8148125559089 372.20369398699177L989.8148125559089 372.20369398699177Q989.8148125559089 377.6481384314362 989.3148125559089 388.925916209214Q988.8425903336868 400.2036939869918 988.8425903336868 406.2592495425473L988.8425903336868 406.2592495425473Q988.8425903336868 424.62036065365845 989.8981458892424 438.5925828758807L989.8981458892424 438.5925828758807Q989.8981458892424 443.75924954254737 995.6203681114646 445.675916209214Q1001.3425903336868 447.5925828758806 1014.8148125559089 447.5925828758806ZM1014.6203681114646 461.0648050981029L1014.6203681114646 461.0648050981029Q1003.7592570003535 461.0648050981029 996.5370347781311 460.175916209214Q989.3148125559089 459.2870273203251 984.0925903336868 456.3148050981029Q978.8703681114646 453.3425828758806 976.1481458892424 449.98147176476954Q973.3981458892424 446.5925828758806 971.8425903336868 439.3425828758806Q970.2870347781313 432.0648050981029 969.9259236670202 424.925916209214Q969.5925903336868 417.7870273203251 969.5925903336868 405.0925828758806L969.5925903336868 405.0925828758806Q969.5925903336868 395.62036065365845 969.8425903336868 389.2870273203251Q970.0925903336868 382.925916209214 970.9537014447978 376.8425828758807Q971.8425903336868 370.73147176476954 973.1481458892424 366.95369398699177Q974.4814792225757 363.20369398699177 976.9537014447978 359.8425828758807Q979.4537014447978 356.45369398699177 982.5925903336868 354.70369398699177Q985.7037014447978 352.95369398699177 990.5370347781313 351.62036065365845Q995.3703681114646 350.31480509810285 1001.0925903336868 349.87036065365845Q1006.7870347781311 349.425916209214 1014.7037014447978 349.425916209214Q1022.6203681114646 349.425916209214 1028.3425903336868 349.87036065365845Q1034.037034778131 350.31480509810285 1038.8703681114646 351.62036065365845Q1043.7037014447978 352.95369398699177 1046.8425903336868 354.70369398699177Q1049.9537014447978 356.45369398699177 1052.4537014447978 359.8425828758807Q1054.9537014447978 363.20369398699177 1056.2592570003535 366.95369398699177Q1057.5925903336868 370.73147176476954 1058.4537014447978 376.8425828758807Q1059.3425903336868 382.925916209214 1059.5925903336868 389.2870273203251Q1059.814812555909 395.62036065365845 1059.814812555909 405.0925828758806L1059.814812555909 405.0925828758806Q1059.814812555909 417.7870273203251 1059.4814792225757 424.925916209214Q1059.1481458892424 432.0648050981029 1057.5925903336868 439.3425828758806Q1056.0092570003535 446.5925828758806 1053.2314792225757 450.00924954254737Q1050.4537014447978 453.45369398699177 1045.2314792225757 456.37036065365845Q1040.0092570003535 459.2870273203251 1032.7870347781313 460.175916209214Q1025.537034778131 461.0648050981029 1014.6203681114646 461.0648050981029ZM1164.037034778131 444.6481384314362L1162.064812555909 459.5925828758806L1088.1481458892424 459.5925828758806L1088.1481458892424 314.0925828758807L1107.9814792225757 314.0925828758807L1107.9814792225757 444.6481384314362L1164.037034778131 444.6481384314362ZM1204.6481458892422 352.45369398699177L1204.6481458892422 459.5925828758806L1185.42592366702 459.5925828758806L1185.42592366702 352.45369398699177L1204.6481458892422 352.45369398699177ZM1185.42592366702 311.06480509810285L1204.6481458892422 311.06480509810285L1204.6481458892422 327.95369398699177L1185.42592366702 327.95369398699177L1185.42592366702 311.06480509810285ZM1313.037034778131 429.8981384314362L1313.037034778131 429.8981384314362Q1313.037034778131 439.2870273203251 1311.0092570003533 445.2870273203251Q1308.953701444798 451.2870273203251 1304.2037014447978 454.8148050981029Q1299.4814792225757 458.3148050981029 1292.6759236670202 459.70369398699177Q1285.8981458892424 461.0648050981029 1275.537034778131 461.0648050981029L1275.537034778131 461.0648050981029Q1269.4814792225757 461.0648050981029 1265.8425903336868 460.95369398699177Q1262.1759236670202 460.87036065365845 1257.3981458892424 460.48147176476954Q1252.5925903336868 460.0925828758806 1249.7592570003533 459.25924954254737Q1246.9259236670202 458.425916209214 1243.6759236670202 457.00924954254737Q1240.3981458892424 455.5925828758806 1238.537034778131 453.3981384314362Q1236.6759236670202 451.20369398699177 1235.0092570003533 448.175916209214Q1233.3703681114646 445.1481384314362 1232.6759236670202 440.98147176476954Q1231.9814792225757 436.8425828758807 1231.9814792225757 431.56480509810285L1231.9814792225757 431.56480509810285L1247.1203681114646 427.6481384314362Q1248.0092570003533 438.7870273203251 1249.1759236670202 441.73147176476954L1249.1759236670202 441.73147176476954Q1250.9259236670202 445.73147176476954 1256.5092570003533 446.7870273203251L1256.5092570003533 446.7870273203251Q1260.7037014447978 447.675916209214 1274.1759236670202 447.675916209214L1274.1759236670202 447.675916209214Q1282.287034778131 447.675916209214 1286.2314792225757 446.95369398699177Q1290.203701444798 446.20369398699177 1291.564812555909 444.175916209214L1291.564812555909 444.175916209214Q1295.4814792225757 440.95369398699177 1295.4814792225757 422.20369398699177L1295.4814792225757 422.20369398699177Q1295.4814792225757 419.37036065365845 1294.287034778131 417.3425828758807Q1293.1203681114646 415.3425828758807 1291.453701444798 414.3425828758807Q1289.814812555909 413.3148050981029 1286.814812555909 412.5648050981029Q1283.8425903336868 411.8425828758807 1281.4537014447978 411.5925828758807Q1279.064812555909 411.3425828758806 1275.1481458892424 410.95369398699177Q1271.2592570003533 410.5648050981029 1268.8981458892424 410.2870273203251L1268.8981458892424 410.2870273203251Q1261.787034778131 409.48147176476954 1257.287034778131 408.7592495425473Q1252.787034778131 408.0370273203251 1248.2037014447978 406.56480509810285Q1243.6203681114646 405.0925828758806 1241.037034778131 402.95369398699177Q1238.4259236670202 400.8148050981029 1236.287034778131 397.3981384314362Q1234.1481458892424 393.95369398699177 1233.2592570003533 389.175916209214Q1232.3981458892424 384.3981384314362 1232.3981458892424 377.7592495425473L1232.3981458892424 377.7592495425473Q1232.3981458892424 370.73147176476954 1233.8425903336868 365.8425828758807Q1235.314812555909 360.95369398699177 1238.1481458892424 357.73147176476954Q1240.9814792225757 354.50924954254737 1245.8981458892424 352.70369398699177Q1250.8425903336868 350.8981384314362 1256.9814792225757 350.175916209214Q1263.1481458892424 349.425916209214 1272.037034778131 349.425916209214L1272.037034778131 349.425916209214Q1277.5925903336868 349.425916209214 1281.1759236670202 349.5925828758807Q1284.7314792225757 349.73147176476954 1288.9814792225757 350.2592495425473Q1293.2314792225757 350.8148050981029 1295.8703681114646 351.7870273203251Q1298.5092570003533 352.7592495425473 1301.1759236670202 354.50924954254737Q1303.8703681114646 356.2592495425473 1305.3425903336868 358.87036065365845Q1306.787034778131 361.45369398699177 1307.7314792225757 365.1481384314362Q1308.6481458892424 368.87036065365845 1308.6481458892424 373.6481384314362L1308.6481458892424 373.6481384314362L1295.564812555909 377.6481384314362Q1295.1759236670202 373.8425828758807 1294.8425903336868 371.6481384314362Q1294.4814792225757 369.45369398699177 1293.314812555909 367.5925828758807Q1292.1481458892424 365.73147176476954 1290.8703681114646 364.95369398699177Q1289.6203681114646 364.175916209214 1286.537034778131 363.5925828758806Q1283.4537014447978 363.0092495425473 1280.3425903336868 362.925916209214Q1277.2037014447978 362.81480509810285 1271.3425903336868 362.81480509810285L1271.3425903336868 362.81480509810285Q1258.8425903336868 362.81480509810285 1254.3981458892424 365.3148050981029Q1249.953701444798 367.78702732032514 1249.953701444798 373.45369398699177L1249.953701444798 373.45369398699177L1249.953701444798 383.425916209214Q1249.953701444798 389.87036065365845 1253.814812555909 391.5648050981029Q1257.6759236670202 393.2870273203251 1274.4814792225757 395.425916209214L1274.4814792225757 395.425916209214Q1276.2314792225757 395.73147176476954 1277.1203681114646 395.8148050981029L1277.1203681114646 395.8148050981029Q1283.8425903336868 396.5925828758807 1287.814812555909 397.2870273203251Q1291.7592570003533 397.98147176476954 1296.1481458892424 399.0925828758807Q1300.537034778131 400.2036939869918 1302.8425903336868 401.73147176476954Q1305.1481458892424 403.23147176476954 1307.4259236670202 405.5925828758807Q1309.7314792225757 407.925916209214 1310.7592570003533 411.3425828758806Q1311.787034778131 414.7592495425473 1312.4259236670202 419.25924954254737Q1313.037034778131 423.7592495425473 1313.037034778131 429.8981384314362ZM1379.453701444798 446.00924954254737L1379.453701444798 446.00924954254737L1379.064812555909 459.70369398699177Q1370.8703681114646 461.0648050981029 1364.2314792225757 461.0648050981029L1364.2314792225757 461.0648050981029Q1357.0925903336868 461.0648050981029 1352.4537014447978 459.48147176476954Q1347.814812555909 457.925916209214 1345.4814792225757 454.50924954254737Q1343.1203681114646 451.0925828758806 1342.2592570003533 446.95369398699177Q1341.3703681114646 442.7870273203251 1341.3703681114646 436.3425828758807L1341.3703681114646 436.3425828758807L1341.3703681114646 363.3981384314362L1326.814812555909 363.3981384314362L1326.814812555909 352.45369398699177L1341.3703681114646 352.45369398699177L1341.3703681114646 321.98147176476954L1360.5092570003535 320.425916209214L1360.5092570003535 352.45369398699177L1380.2314792225757 352.45369398699177L1380.2314792225757 363.3981384314362L1360.5092570003535 363.3981384314362L1360.5092570003535 429.8148050981029Q1360.5092570003535 440.3425828758806 1361.537034778131 443.48147176476954Q1362.564812555909 446.5925828758806 1367.1481458892424 446.5925828758806L1367.1481458892424 446.5925828758806Q1371.6481458892424 446.5925828758806 1379.453701444798 446.00924954254737Z " fill="#FF4400FF" transform="matrix(0.6339516391065203,0,0,0.6339516391065204,0,55.25357836790809)"/></g></svg>